<?xml version="1.0" encoding="UTF-8"?><svg xmlns="http://www.w3.org/2000/svg" viewBox="0 0 288 288"><defs><style>.cls-1{fill:#995587;}.cls-2{fill:#e296cb;}.cls-3{fill:none;}.cls-4{fill:#eab2d9;}</style></defs><g id="Border"><rect class="cls-3" width="288" height="288"/></g><g id="Main"><circle class="cls-2" cx="144" cy="144" r="144"/><circle class="cls-1" cx="48" cy="148.67" r="24"/><circle class="cls-1" cx="240" cy="148.67" r="24"/><path class="cls-4" d="M173.93,135.23h-59.87c-9.98,0-18.07,8.09-18.07,18.07v59.87c0,9.98,8.09,18.07,18.07,18.07h59.87c9.98,0,18.07-8.09,18.07-18.07v-59.87c0-9.98-8.09-18.07-18.07-18.07Zm-38.42,73.46c-4.69,4.69-12.28,4.69-16.97,0-4.69-4.69-4.69-12.28,0-16.97,4.69-4.69,12.28-4.69,16.97,0s4.69,12.28,0,16.97Zm33.94-33.94c-4.69,4.69-12.28,4.69-16.97,0s-4.69-12.28,0-16.97c4.69-4.69,12.28-4.69,16.97,0,4.69,4.69,4.69,12.28,0,16.97Z"/><path class="cls-4" d="M186.64,15.35l15.1,67.04c2.21,9.8,13.49,14.41,21.93,8.96l40.75-26.32c-18.01-27.41-45.13-48.3-77.05-58.37-1.08,2.6-1.43,5.58-.72,8.7Z"/><path class="cls-4" d="M86.26,82.39L101.36,15.35c.7-3.12,.36-6.1-.72-8.7-31.92,10.07-59.04,30.96-77.05,58.37l40.75,26.32c8.44,5.45,19.72,.84,21.93-8.96Z"/></g></svg>